<svg xmlns="http://www.w3.org/2000/svg" viewBox="0 0 256 256" role="img" aria-label="Inventory Pick Pack">
  <defs>
    <linearGradient id="blue" x1="20" y1="25" x2="185" y2="160" gradientUnits="userSpaceOnUse">
      <stop stop-color="#12f1f2"/><stop offset=".56" stop-color="#0798ef"/><stop offset="1" stop-color="#0063c8"/>
    </linearGradient>
    <linearGradient id="green" x1="236" y1="100" x2="70" y2="226" gradientUnits="userSpaceOnUse">
      <stop stop-color="#96ff3e"/><stop offset=".58" stop-color="#15d94a"/><stop offset="1" stop-color="#00a75f"/>
    </linearGradient>
    <linearGradient id="box" x1="0" y1="0" x2="1" y2="1">
      <stop stop-color="#10e7fa"/><stop offset="1" stop-color="#0875ee"/>
    </linearGradient>
  </defs>
  <rect width="256" height="256" rx="42" fill="#052d59"/>
  <path d="M31 79c22-30 52-43 91-43h17V21c0-7 8-11 13-6l52 43c6 5 6 13 0 18l-52 43c-5 5-13 1-13-6V96h-21c-33 0-60 9-82 31-12 12-17 27-17 45V95c0-6 4-12 12-16z" fill="url(#blue)"/>
  <path d="M225 177c-22 30-52 43-91 43h-17v15c0 7-8 11-13 6l-52-43c-6-5-6-13 0-18l52-43c5-5 13-1 13 6v17h21c33 0 60-9 82-31 12-12 17-27 17-45v77c0 6-4 12-12 16z" fill="url(#green)"/>
  <path d="M68 67h49c8 0 13 8 10 15l-10 24c-2 5-6 8-12 8H83l-9 26h7c4 0 7 3 7 7s-3 7-7 7H66c-8 0-13-8-10-15l18-48h-6c-8 0-14-5-14-12 0-6 6-12 14-12zm28 14-7 19h17l7-19H96z" fill="#fff"/>
  <path d="M132 75l18-9M132 91h21M132 106l18 9" fill="none" stroke="#fff" stroke-width="7" stroke-linecap="round"/>
  <path d="M154 171l25-14 25 14v34h-50z" fill="none" stroke="#fff" stroke-width="8" stroke-linejoin="round"/>
  <g fill="url(#box)"><path d="M163 177h15v16h-15z"/><path d="M181 177h15v16h-15z"/><path d="M172 195h15v16h-15z"/></g>
  <g stroke="#14e9eb" stroke-width="7" stroke-linecap="round"><path d="M113 142l-9-11"/><path d="M96 151H82"/><path d="M132 142l9-11"/><path d="M149 151h14"/></g>
</svg>